<svg id="Layer_1" data-name="Layer 1" xmlns="http://www.w3.org/2000/svg" viewBox="0 0 205.53 185.81"><defs><style>.cls-1,.cls-13,.cls-7{stroke:#231f20;stroke-miterlimit:10;}.cls-2{font-size:8.67px;fill:#231f20;}.cls-2,.cls-8{font-family:Cambria;}.cls-3{letter-spacing:-0.02em;}.cls-4{letter-spacing:-0.01em;}.cls-5{letter-spacing:-0.02em;}.cls-6{fill:#a02d2b;}.cls-7{fill:#f4f4f5;}.cls-13,.cls-7{stroke-width:0.25px;}.cls-8{font-size:12px;}.cls-13,.cls-14,.cls-8{fill:#fff;}.cls-9{letter-spacing:-0.02em;}.cls-10{letter-spacing:-0.01em;}.cls-11{letter-spacing:-0.02em;}.cls-12{fill:#c6c6c5;}</style></defs><circle class="cls-1" cx="100.31" cy="92.91" r="85.89"/><text class="cls-2" transform="translate(70.23 165.72)">Dr<tspan class="cls-3" x="9.32" y="0">i</tspan><tspan x="11.56" y="0">ving </tspan><tspan class="cls-4" x="29.36" y="0">A</tspan><tspan x="34.7" y="0">cade</tspan><tspan class="cls-5" x="51.79" y="0">m</tspan><tspan x="58.83" y="0">y</tspan></text><path class="cls-6" d="M99.66,45.73c4.81-4.31,9.13-8.71,14-12.43,13.88-10.66,28.71-10.24,42.09,1.1,10.81,9.16,16.57,20.52,14.37,35.11A61.13,61.13,0,0,1,157.26,99a271.4,271.4,0,0,1-18.43,20.67c-7.25,7.37-15,14.28-22.57,21.28-5.26,4.83-10.69,9.48-16.28,14.41-3.43-3-6.93-5.86-10.2-9C77,134.25,64,122.3,51.54,109.77c-9-9.13-16.24-19.67-20-32.24-5.86-19.65.24-34.85,16.77-46.17,11.33-7.77,23.26-7.82,34.68-.23,5.2,3.45,9.62,8.07,14.37,12.19C98.24,44.08,99,45,99.66,45.73Z"/><path class="cls-7" d="M44.11,157.45a36,36,0,0,0-27.3,0,32.65,32.65,0,0,1,7.11-12.3,38.33,38.33,0,0,0-14.81-6.28c15.11-5,27.5-5,42.69,0C48.72,146.3,47.19,150,44.11,157.45Z"/><text class="cls-8" transform="translate(57.2 165.72)">Dr<tspan class="cls-9" x="12.9" y="0">i</tspan><tspan x="16" y="0">ving </tspan><tspan class="cls-10" x="40.65" y="0">A</tspan><tspan x="48.03" y="0">cade</tspan><tspan class="cls-11" x="71.69" y="0">m</tspan><tspan x="81.44" y="0">y</tspan></text><path class="cls-12" d="M44.11,157.45s-1.93-13.2-9.51-10l17.2-8.53Z"/><path class="cls-7" d="M156.51,157.51a36,36,0,0,1,27.3,0,32.92,32.92,0,0,0-7.11-12.3c5.05-3.34,8.08-4.72,14.81-6.29-15.11-5-27.5-5-42.7,0Z"/><path class="cls-12" d="M156.51,157.51s1.93-13.2,9.5-10.06l-17.2-8.53Z"/><path class="cls-13" d="M166.09,147.4c-43.52-16.66-87.95-16.66-131.49,0l-7.7-18.59c48.49-18.71,98.41-18.71,146.89,0Z"/><path class="cls-6" d="M48.42,125.78l.25.55a3.58,3.58,0,0,0-.59.38.7.7,0,0,0-.26.37.88.88,0,0,0,0,.48,4.24,4.24,0,0,0,.27.67L52,136.45l2.1-.62a2.67,2.67,0,0,0,.94-.43,1.44,1.44,0,0,0,.46-.65,2.45,2.45,0,0,0,.13-.95,8.07,8.07,0,0,0-.07-1l1.53-.41,1.13,3.45c-4.12,1.08-6.16,1.69-10.19,3l-.28-.54a2.91,2.91,0,0,0,.53-.39.64.64,0,0,0,.21-.37,1.08,1.08,0,0,0-.07-.48q-.1-.27-.3-.66l-3.55-7q-.2-.37-.36-.63a1,1,0,0,0-.36-.38,1.13,1.13,0,0,0-.51-.14,3.74,3.74,0,0,0-.78,0l-.28-.53C44.69,126.9,45.93,126.51,48.42,125.78Z"/><path class="cls-6" d="M59.74,134.8a1.49,1.49,0,0,0,.63-.47.82.82,0,0,0,.09-.55,5.71,5.71,0,0,0-.35-1.12c-.59-1.57-.89-2.35-1.49-3.92a3.49,3.49,0,0,0-.3-.66,1,1,0,0,0-.35-.35,1.08,1.08,0,0,0-.49-.14,5.91,5.91,0,0,0-.7,0l-.22-.57c1.27-.35,1.91-.52,3.19-.85l1.47-.33c.84,2.42,1.27,3.62,2.11,6,.11.32.2.56.27.73a2.37,2.37,0,0,0,.19.39,1,1,0,0,0,.18.23,1.37,1.37,0,0,0,.23.17,1.25,1.25,0,0,0,.34.1,3,3,0,0,0,.55,0l.19.56c-2.14.46-3.2.71-5.32,1.24ZM60,122.56l.72,2.08c-1.3.29-1.95.45-3.24.76l-.79-2.07C58,123,58.64,122.86,60,122.56Z"/><path class="cls-6" d="M72.37,132.87a8.79,8.79,0,0,1-2.92.07,4.7,4.7,0,0,1-2.28-1.05,5,5,0,0,1-1.46-2.33,4.37,4.37,0,0,1-.21-2.07,3.38,3.38,0,0,1,.77-1.63,4.88,4.88,0,0,1,1.62-1.16,9.24,9.24,0,0,1,2.28-.69,7.34,7.34,0,0,1,4.61.41,4.18,4.18,0,0,1,2.17,3,4.42,4.42,0,0,1-.13,2.63,3.77,3.77,0,0,1-1.6,1.81A8.08,8.08,0,0,1,72.37,132.87Zm-3.25-4.18a6.29,6.29,0,0,0,1.32,2.63,2,2,0,0,0,1.85.63,1.9,1.9,0,0,0,.93-.4,1.54,1.54,0,0,0,.46-.78,3.07,3.07,0,0,0,.08-1.12,9.14,9.14,0,0,0-.24-1.4,6,6,0,0,0-1.26-2.69,2,2,0,0,0-1.89-.64,1.88,1.88,0,0,0-1.19.6,1.86,1.86,0,0,0-.38,1.23A6.87,6.87,0,0,0,69.12,128.69Z"/><path class="cls-6" d="M92,130.45c-2.17.13-3.26.21-5.43.41l-.08-.58a1.47,1.47,0,0,0,.68-.35.93.93,0,0,0,.21-.53,5.59,5.59,0,0,0-.08-1.16l-.3-2.35c-.06-.41-.12-.75-.17-1a3.92,3.92,0,0,0-.2-.65,1.55,1.55,0,0,0-.27-.4,1.34,1.34,0,0,0-.34-.26,1.64,1.64,0,0,0-.41-.13,2.5,2.5,0,0,0-.55,0,2.32,2.32,0,0,0-.91.3,1.92,1.92,0,0,0-.73.65,1.1,1.1,0,0,0-.21.8l.55,3.37a7.07,7.07,0,0,0,.25,1.15,1,1,0,0,0,.36.48,1.67,1.67,0,0,0,.78.21l.09.58c-2.16.21-3.24.33-5.39.61l-.11-.57a1.53,1.53,0,0,0,.68-.39.86.86,0,0,0,.19-.54,6.34,6.34,0,0,0-.14-1.15c-.28-1.43-.42-2.15-.69-3.58-.08-.43-.15-.75-.21-1a1.35,1.35,0,0,0-.24-.48,1,1,0,0,0-.4-.26,3.08,3.08,0,0,0-.85-.1L78,123c1.31-.19,2-.29,3.28-.46l1.51-.17c0,.51,0,.77,0,1.28H83a12.58,12.58,0,0,1,1.19-.89,5.27,5.27,0,0,1,1.12-.54,4.69,4.69,0,0,1,1.28-.28,5.17,5.17,0,0,1,1.67.08,2.7,2.7,0,0,1,1.12.52,2.35,2.35,0,0,1,.67.93,4.42,4.42,0,0,1,.31,1.31c.13,1.29.2,1.93.33,3.22q0,.39.09.72a2.31,2.31,0,0,0,.14.54,1,1,0,0,0,.22.32,1,1,0,0,0,.36.19,2.8,2.8,0,0,0,.53.12Z"/><path class="cls-6" d="M112.31,128.19a4.1,4.1,0,0,0,0,.93.79.79,0,0,0,.27.43,2.13,2.13,0,0,0,.8.33l-.06.58c-2.34-.14-3.51-.19-5.86-.26l0-.58a2.45,2.45,0,0,0,.86-.24.7.7,0,0,0,.29-.36,3.73,3.73,0,0,0,.13-1c.08-1.41.12-2.12.19-3.53-2.13-.08-3.2-.1-5.33-.11l0,3.54a5.32,5.32,0,0,0,0,.57,1.88,1.88,0,0,0,.09.43.66.66,0,0,0,.2.29,1.24,1.24,0,0,0,.35.2,2.86,2.86,0,0,0,.55.15v.58c-2.36,0-3.54,0-5.9,0l0-.59a3.53,3.53,0,0,0,.66-.2.73.73,0,0,0,.35-.29,1,1,0,0,0,.15-.46,5.15,5.15,0,0,0,0-.7c-.06-3-.09-4.56-.16-7.6a6,6,0,0,0-.05-.69.9.9,0,0,0-.17-.46.82.82,0,0,0-.4-.28,4.31,4.31,0,0,0-.74-.19l0-.58c2.61,0,3.92-.06,6.52,0v.58a2.79,2.79,0,0,0-.9.28.83.83,0,0,0-.34.42,3,3,0,0,0-.11.93l0,3c2.15,0,3.23,0,5.38.11l.16-3a4.05,4.05,0,0,0,0-.93.81.81,0,0,0-.3-.43,2.75,2.75,0,0,0-.9-.32l0-.58c2.59.07,3.89.12,6.48.28l-.06.58a3.55,3.55,0,0,0-.81.18.81.81,0,0,0-.38.28,1.36,1.36,0,0,0-.17.41,5.48,5.48,0,0,0-.08.7C112.69,123.64,112.56,125.16,112.31,128.19Z"/><path class="cls-6" d="M125.79,130a8.75,8.75,0,0,1-2.52,1.05,8.43,8.43,0,0,1-2.64.11,5.92,5.92,0,0,1-3.77-1.48,4,4,0,0,1-1-3.42,4.26,4.26,0,0,1,1-2.4,4.64,4.64,0,0,1,2.25-1.4,8.38,8.38,0,0,1,3.18-.23,8.72,8.72,0,0,1,1.88.39,4.8,4.8,0,0,1,1.32.68,3.3,3.3,0,0,1,.81.91,3.69,3.69,0,0,1,.42,1.34,6,6,0,0,1-.12,1.78c-2.93-.39-4.39-.55-7.34-.82a3.26,3.26,0,0,0,.4,2.4,2.84,2.84,0,0,0,2.08,1,4.89,4.89,0,0,0,1.59-.08,6.32,6.32,0,0,0,1.66-.7Zm-2.4-4a3.93,3.93,0,0,0-.13-2.05,1.44,1.44,0,0,0-1.27-.8,1.89,1.89,0,0,0-1.57.54,3.93,3.93,0,0,0-.93,1.91C121.05,125.75,121.83,125.83,123.39,126Z"/><path class="cls-6" d="M134.35,131.83l-.15-.08a8.11,8.11,0,0,1-2,.69,5.76,5.76,0,0,1-1.9,0,4.58,4.58,0,0,1-1.59-.53,2.2,2.2,0,0,1-.9-.92,1.73,1.73,0,0,1-.11-1.17c.18-.85.88-1.45,2.1-1.77A14.82,14.82,0,0,1,135,128l.23-.82a2.41,2.41,0,0,0,.09-1.27,1.29,1.29,0,0,0-.46-.73,2.18,2.18,0,0,0-.89-.33,2.66,2.66,0,0,0-1,0,1.81,1.81,0,0,0-.85.41,2.83,2.83,0,0,0-.73,1c-.88-.14-1.33-.21-2.21-.33l.35-1.58c.79-.14,1.43-.22,1.95-.28s1-.08,1.51-.09.93,0,1.31,0a10.75,10.75,0,0,1,1.14.14,7.12,7.12,0,0,1,2.21.69,2.08,2.08,0,0,1,1,1.14,3,3,0,0,1-.11,1.79l-1,3.33c-.12.38-.19.68-.24.89a1.35,1.35,0,0,0,0,.47.5.5,0,0,0,.11.28.86.86,0,0,0,.22.2,4,4,0,0,0,.56.26l-.18.57c-1.64-.34-2.45-.5-4.09-.79C134.1,132.49,134.19,132.27,134.35,131.83Zm.45-3a6,6,0,0,0-2.75,0,1.68,1.68,0,0,0-1.19,1.23.9.9,0,0,0,.18.88,1.7,1.7,0,0,0,1,.45,2.4,2.4,0,0,0,1-.05,2.2,2.2,0,0,0,.88-.43,1.53,1.53,0,0,0,.48-.7Z"/><path class="cls-6" d="M146.34,127.81l.14.07a6.47,6.47,0,0,1,2.15-.62,5.87,5.87,0,0,1,2.07.19,9.6,9.6,0,0,1,1.45.5l-1,2.31c-.82-.23-1.23-.34-2.06-.55a1.57,1.57,0,0,0-.21-.88,1.16,1.16,0,0,0-.74-.48,1.67,1.67,0,0,0-.6,0,2.07,2.07,0,0,0-.69.18,1.5,1.5,0,0,0-.53.33,1.66,1.66,0,0,0-.31.4,5.13,5.13,0,0,0-.28.65c-.41,1.07-.61,1.61-1,2.69a6.06,6.06,0,0,0-.34,1.14.85.85,0,0,0,.11.58,1.53,1.53,0,0,0,.68.45l-.21.55c-2.14-.53-3.22-.78-5.38-1.25l.19-.56a1.93,1.93,0,0,0,.83-.13,1.1,1.1,0,0,0,.44-.42,6.41,6.41,0,0,0,.46-1.1c.48-1.4.73-2.09,1.21-3.49.14-.42.24-.73.29-.94a1.15,1.15,0,0,0,0-.51.69.69,0,0,0-.24-.38,2.83,2.83,0,0,0-.72-.37l.19-.58c1.3.25,2,.38,3.25.66l1.48.35Z"/><path class="cls-6" d="M157.64,137.86a9.47,9.47,0,0,1-2.14.3,5.68,5.68,0,0,1-1.74-.25,3.4,3.4,0,0,1-2.08-1.38,2.5,2.5,0,0,1,.12-2.26c.83-1.85,1.24-2.78,2.07-4.64l-1.43-.4.25-.58a3.93,3.93,0,0,0,1.15,0,1.68,1.68,0,0,0,.71-.3,3,3,0,0,0,.63-.64,10.33,10.33,0,0,0,.67-1.07c1.12.33,1.68.49,2.8.84l-1,2.06c1.31.4,2,.61,3.27,1l-.53,1c-1.29-.42-1.93-.63-3.23-1l-1.78,3.72a7,7,0,0,0-.55,1.41,1.13,1.13,0,0,0,.07.77.94.94,0,0,0,.57.42,3.32,3.32,0,0,0,.55.13,2.77,2.77,0,0,0,.58,0,3.4,3.4,0,0,0,.71-.12Z"/><path class="cls-14" d="M146.43,110a1.12,1.12,0,0,0-.4.38c-.67,1.33-1.85,1.36-3.12,1.31-1.93-.06-3.87,0-5.8,0-1,0-1.36-.49-1.25-1.45a2.77,2.77,0,0,1,2.13-2.39,14.43,14.43,0,0,1,2.27-.32,2.1,2.1,0,0,0,2.14-1.66c.14-.53.36-1,.51-1.58A4.88,4.88,0,0,0,139.59,98a9.65,9.65,0,0,0-3.81-.34c-5.74.75-10-1.69-13.36-6.06-1-1.35-1.9-2.84-2.85-4.27l-.22.13c1,1.57,1.9,3.16,2.93,4.69a1.39,1.39,0,0,1,.17,1.49,21.33,21.33,0,0,0-1.08,3.4,6,6,0,0,0,.57,4.28c1,1.83.76,2.78-.94,4-1.24.9-2.67,1.56-3.82,2.56a8.64,8.64,0,0,1-7,2.09,10.21,10.21,0,0,0-1.75,0c-.84.05-1.1-.45-1.07-1.14a2.35,2.35,0,0,1,1.41-2.11,2.25,2.25,0,0,1,1-.25c2.37.1,4.13-1.14,5.82-2.57a3.33,3.33,0,0,0,.88-4.58c-1.31-2.63-2.57-5.28-3.84-7.94-.19-.39-.31-.8-.49-1.19-.28-.63-.06-1,.57-1.17a20.41,20.41,0,0,0,3.14-1.13,11.87,11.87,0,0,0-1.33.08,21,21,0,0,0-7.34,2.82,60.15,60.15,0,0,1-6.08,3,15.43,15.43,0,0,1-3.37.58c.07-.8.17-1.4.16-2a1.55,1.55,0,0,0-.32-1c-1.07-1.13-2.18-2.22-3.28-3.32l-.42-.34a7.57,7.57,0,0,0,2.5,4A1.66,1.66,0,0,1,96.88,93a13.33,13.33,0,0,0,.93,7.13,6.79,6.79,0,0,1-.66,6.84c-1.82,3-1.71,3-5.22,3-2,0-4.06,0-6.08,0-.81,0-.95-.33-.78-1a3.49,3.49,0,0,1,2.81-2.83c.84-.17,1.68-.31,2.53-.44,1.25-.19,1.51-1.18,1.83-2.16a1.87,1.87,0,0,0-.62-2.22c-1.11-.92-2.24-1.82-3.33-2.75a26.73,26.73,0,0,1-6.81-8.36c-.4-.78-.66-1.63-1.06-2.43a10.07,10.07,0,0,0,1.11,4.41c.71,1.34,1.54,2.63,2.37,4a8.43,8.43,0,0,1-5.7-1.19c-1.65-1.06-3.11-2.39-4.58-3.54a9,9,0,0,0,2.32,3.32,1.92,1.92,0,0,1,.55,2.38,4.84,4.84,0,0,1-2.66,3.21c-2.06,1.1-4,2.4-5.94,3.69a12.88,12.88,0,0,0-4.53,5.1,1.26,1.26,0,0,1-1.27.82c-2.89,0-5.77,0-8.66,0-1.06,0-1.18-.18-.86-1.22A3.24,3.24,0,0,1,55,106.4a8.09,8.09,0,0,0,5.1-3.65c2-3.06,4.09-6.12,6.1-9.2a6.65,6.65,0,0,0,.58-6.16c-.6-1.69-.92-3.48-1.36-5.24-.06-.23-.1-.46-.15-.7l-.28,0v3.61l-.3.07c-.43-.92-.93-1.82-1.28-2.78-1.28-3.45-2.21-7-1.47-10.69a11.59,11.59,0,0,1,2.65-5.29c1.11-1.34,2.22-2.7,3.31-4.06a3.3,3.3,0,0,0,.9-2.71,2.08,2.08,0,0,0-3.24-1.41,2.23,2.23,0,0,1-2.74.07c-1.18-.81-1.55-1.56-1.21-2.77a2.77,2.77,0,0,0-1-3.25,1.32,1.32,0,0,1-.43-1.56,2.55,2.55,0,0,0-.1-2c-.36-.68.14-1.08.69-1.38,1.92-1,3.87-2,5.76-3.06.72-.41,1.31-1.07,2-1.53a4.81,4.81,0,0,1,1.39-.55c.94-.24,1.9-.4,2.83-.66.58-.16.78-.54.6-1.2A3.21,3.21,0,0,1,74,37.44c.07.23.12.41.17.6l1.92-.76c-.07.44-.1.63-.13.84.13,0,.23,0,.3,0a3.37,3.37,0,0,1,3.32.23,5.1,5.1,0,0,0,1.31.39c1.52.26,3,.34,4.28,1.57a7.84,7.84,0,0,0,2.56,1.19A6.33,6.33,0,0,1,91,44.67a10.9,10.9,0,0,1,.4,1.27L90,45.33l-.14.2.78.62a5.41,5.41,0,0,1,2.5,4,3,3,0,0,0,.8,1.51c1.59,1.89,1.27,4.21,1.5,6.4-1.1,1.72-.58,3.85-1.53,5.69-1.22,2.36,1,6,3.8,6.44a55.11,55.11,0,0,0,7.68.81,73.3,73.3,0,0,1,19,2.8,15.75,15.75,0,0,1,4.14,2.12c2.73,1.83,5.44,1.63,8.17.16a2.65,2.65,0,0,0,1.53-3.21c-.47-3-3.1-5.26-6.48-5.79a26.48,26.48,0,0,0-9.21.65,20,20,0,0,1-5.27.45c-2.77-.22-3.76-2.88-2.05-5.06A5.45,5.45,0,0,1,120,60.65c.4,0,.91-.21,1.07.49,0,.13.55.24.85.21,1.4-.1,2.81-.26,4.09-.39l-1.59.89.92.2-1.5.62.73.28a1.29,1.29,0,0,1,0,.19l-2.26.37.94.35-.2.41c-.78-.13-1.57-.24-2.35-.41S119,63.3,118,63.17a3,3,0,0,0-1.67.31,1.65,1.65,0,0,0-.36,2.87,4,4,0,0,0,3.71.87c1.6-.26,3.18-.76,4.78-.9A51.26,51.26,0,0,1,131.9,66a10.19,10.19,0,0,1,7.68,4.36,5,5,0,0,1,.72,5,7,7,0,0,1-4.78,4.48,8.33,8.33,0,0,1-4.41.52c.59.75,1.12,1.39,1.62,2.06,1.31,1.76,2.64,3.52,3.9,5.34a6.21,6.21,0,0,1,.68,1.79c.06.17-.08.39-.19.81a10.9,10.9,0,0,0,2,1.51,54.86,54.86,0,0,0,6,2.33c1.7.51,2.37.91,2.09,2.62-.46,2.82.6,5.4.84,8.09,0,.31,0,.62.08.92A3.7,3.7,0,0,1,146.43,110Z"/></svg>