<svg id="Layer_1" data-name="Layer 1" xmlns="http://www.w3.org/2000/svg" viewBox="0 0 206.81 186.97"><defs><style>.cls-1{fill:#d3d3d3;stroke:#231f20;}.cls-1,.cls-11{stroke-miterlimit:10;}.cls-13,.cls-2,.cls-4{fill:#231f20;}.cls-3{fill:#b83535;}.cls-4{font-size:12px;}.cls-13,.cls-4{font-family:Cambria;}.cls-5{letter-spacing:-0.02em;}.cls-6{letter-spacing:-0.01em;}.cls-7{letter-spacing:-0.02em;}.cls-8{fill:#a02c2b;}.cls-9{fill:#b93535;}.cls-10{fill:#c63734;}.cls-11,.cls-12{fill:#fff;}.cls-11{stroke:#000;stroke-width:0.25px;}.cls-13{font-size:8.67px;}.cls-14{letter-spacing:-0.02em;}.cls-15{letter-spacing:-0.01em;}.cls-16{letter-spacing:-0.02em;}</style></defs><circle class="cls-1" cx="105.62" cy="90.45" r="85.89"/><path class="cls-2" d="M104.67,42.21c4.82-4.32,9.14-8.71,14-12.43,13.88-10.66,28.71-10.25,42.09,1.1C171.55,40,177.31,51.4,175.1,66a60.94,60.94,0,0,1-12.82,29.45,269.62,269.62,0,0,1-18.44,20.67c-7.24,7.37-15,14.29-22.56,21.28-5.26,4.84-10.69,9.48-16.28,14.41-3.44-3-6.94-5.85-10.21-9C82,130.72,69,118.77,56.55,106.24c-9-9.12-16.24-19.66-20-32.24-5.85-19.65.25-34.85,16.77-46.16C64.67,20.07,76.59,20,88,27.6c5.2,3.45,9.62,8.07,14.37,12.2A31.23,31.23,0,0,1,104.67,42.21Z"/><path class="cls-3" d="M49.12,150.93a36,36,0,0,0-27.3,0,32.74,32.74,0,0,1,7.12-12.3c-5.06-3.34-8.09-4.72-14.82-6.29,15.12-5,27.51-5,42.7,0Z"/><text class="cls-4" transform="translate(61.58 161.81)">Dr<tspan class="cls-5" x="12.9" y="0">i</tspan><tspan x="16" y="0">ving </tspan><tspan class="cls-6" x="40.65" y="0">A</tspan><tspan x="48.03" y="0">cade</tspan><tspan class="cls-7" x="71.69" y="0">m</tspan><tspan x="81.44" y="0">y</tspan></text><path class="cls-8" d="M49.12,150.93s-1.92-13.2-9.5-10.06l17.2-8.53Z"/><path class="cls-9" d="M161.53,151a36,36,0,0,1,27.3,0,32.77,32.77,0,0,0-7.12-12.31,38.38,38.38,0,0,1,14.82-6.28c-15.11-5-27.51-5-42.7,0Z"/><path class="cls-8" d="M161.53,151s1.92-13.21,9.5-10.06l-17.2-8.53Z"/><path class="cls-10" d="M171.11,140.87c-43.52-16.65-88-16.66-131.49,0l-7.7-18.58c48.48-18.71,98.41-18.71,146.89,0Z"/><path class="cls-11" d="M53.44,119.26l.24.55a3.27,3.27,0,0,0-.58.37.75.75,0,0,0-.27.38.86.86,0,0,0,0,.47,4.28,4.28,0,0,0,.26.67c1.55,3.29,2.32,4.94,3.86,8.22l2.1-.61a2.75,2.75,0,0,0,.94-.44,1.49,1.49,0,0,0,.46-.64,2.7,2.7,0,0,0,.13-.95,8.24,8.24,0,0,0-.07-1c.61-.16.91-.25,1.52-.4.46,1.38.68,2.07,1.14,3.45-4.12,1.08-6.16,1.68-10.2,3l-.27-.54a3.52,3.52,0,0,0,.53-.38.59.59,0,0,0,.2-.38.91.91,0,0,0-.07-.47,5.38,5.38,0,0,0-.29-.66l-3.55-7a6.68,6.68,0,0,0-.36-.64,1.16,1.16,0,0,0-.36-.37,1.13,1.13,0,0,0-.51-.15,4,4,0,0,0-.79,0l-.28-.54C49.71,120.38,51,120,53.44,119.26Z"/><path class="cls-11" d="M64.76,128.27a1.42,1.42,0,0,0,.63-.47.8.8,0,0,0,.09-.54,6.55,6.55,0,0,0-.35-1.13c-.6-1.56-.89-2.35-1.49-3.92a4.47,4.47,0,0,0-.31-.65.95.95,0,0,0-.83-.49,3.42,3.42,0,0,0-.7,0l-.22-.57c1.27-.35,1.91-.52,3.19-.85l1.47-.34,2.1,6c.12.32.21.56.28.73a2.37,2.37,0,0,0,.19.39.84.84,0,0,0,.18.23.81.81,0,0,0,.23.17,1.23,1.23,0,0,0,.34.11,4,4,0,0,0,.54,0l.19.56c-2.13.46-3.2.71-5.31,1.24ZM65,116l.73,2.08c-1.3.29-1.95.44-3.25.76l-.78-2.07C63,116.49,63.66,116.33,65,116Z"/><path class="cls-11" d="M77.39,126.35a8.77,8.77,0,0,1-2.92.06,4.49,4.49,0,0,1-2.28-1A5,5,0,0,1,70.73,123a4.26,4.26,0,0,1-.21-2.07,3.38,3.38,0,0,1,.77-1.63,4.58,4.58,0,0,1,1.62-1.17,9.24,9.24,0,0,1,2.28-.68,7.27,7.27,0,0,1,4.61.41,4.19,4.19,0,0,1,2.17,3,4.34,4.34,0,0,1-.14,2.63,3.72,3.72,0,0,1-1.59,1.8A8.15,8.15,0,0,1,77.39,126.35Zm-3.25-4.18a6.24,6.24,0,0,0,1.32,2.63,2,2,0,0,0,1.85.62,1.86,1.86,0,0,0,.93-.4,1.61,1.61,0,0,0,.46-.78,3.27,3.27,0,0,0,.08-1.11,9.36,9.36,0,0,0-.25-1.41A6,6,0,0,0,77.28,119a2,2,0,0,0-1.9-.64,1.69,1.69,0,0,0-1.57,1.84A7.39,7.39,0,0,0,74.14,122.17Z"/><path class="cls-11" d="M97.05,123.92c-2.18.13-3.26.21-5.43.41l-.08-.58a1.38,1.38,0,0,0,.68-.35.88.88,0,0,0,.21-.53,6.46,6.46,0,0,0-.08-1.16c-.12-.93-.18-1.4-.31-2.34-.05-.41-.11-.75-.17-1a3,3,0,0,0-.2-.64,1.22,1.22,0,0,0-.27-.41,1.36,1.36,0,0,0-.34-.25,1,1,0,0,0-.4-.13,2,2,0,0,0-.55,0,2.32,2.32,0,0,0-1.64.94,1.09,1.09,0,0,0-.21.81l.55,3.37a6.88,6.88,0,0,0,.25,1.14,1,1,0,0,0,.36.49,1.67,1.67,0,0,0,.78.21l.09.58c-2.16.21-3.24.33-5.39.61l-.11-.58a1.53,1.53,0,0,0,.68-.39.83.83,0,0,0,.19-.53,5.6,5.6,0,0,0-.15-1.15l-.68-3.58c-.08-.43-.15-.75-.21-1a1.2,1.2,0,0,0-.24-.48.92.92,0,0,0-.41-.27,3.51,3.51,0,0,0-.84-.1l-.12-.59c1.31-.2,2-.29,3.27-.47l1.52-.16c0,.51,0,.77,0,1.28H88a12.15,12.15,0,0,1,1.18-.89,6.46,6.46,0,0,1,1.12-.55,5.28,5.28,0,0,1,1.29-.28,5.74,5.74,0,0,1,1.66.08,2.65,2.65,0,0,1,1.12.53,2.33,2.33,0,0,1,.68.92,4.92,4.92,0,0,1,.31,1.32c.13,1.29.2,1.93.33,3.22q0,.38.09.72a1.91,1.91,0,0,0,.14.53.86.86,0,0,0,.22.32,1.07,1.07,0,0,0,.35.2,2.44,2.44,0,0,0,.54.11Z"/><path class="cls-11" d="M117.33,121.66a4.1,4.1,0,0,0,0,.93.82.82,0,0,0,.27.44,2.07,2.07,0,0,0,.79.33l0,.58c-2.34-.14-3.51-.2-5.86-.26l0-.58a3.12,3.12,0,0,0,.86-.24.72.72,0,0,0,.29-.37,4.2,4.2,0,0,0,.13-1c.07-1.42.11-2.12.19-3.54-2.13-.07-3.2-.09-5.34-.1l0,3.53c0,.21,0,.4,0,.58a1.25,1.25,0,0,0,.09.43.77.77,0,0,0,.19.28,1,1,0,0,0,.36.2,2.86,2.86,0,0,0,.55.15v.59c-2.36,0-3.54,0-5.9,0l0-.58a4.31,4.31,0,0,0,.65-.2.81.81,0,0,0,.36-.29,1,1,0,0,0,.14-.46,5,5,0,0,0,0-.7c-.06-3-.1-4.56-.16-7.6a6.18,6.18,0,0,0,0-.7.9.9,0,0,0-.17-.46,1,1,0,0,0-.4-.28,3.81,3.81,0,0,0-.74-.18l0-.58c2.61-.06,3.91-.06,6.52,0v.58a2.74,2.74,0,0,0-.9.29.8.8,0,0,0-.34.41,2.81,2.81,0,0,0-.11.94l0,3c2.16,0,3.23,0,5.39.1l.15-2.94a3.1,3.1,0,0,0,0-.93.76.76,0,0,0-.29-.44,2.84,2.84,0,0,0-.9-.32l0-.58c2.59.07,3.88.13,6.47.29l0,.58a3.16,3.16,0,0,0-.81.17.82.82,0,0,0-.38.29,1.1,1.1,0,0,0-.17.4c0,.16-.06.39-.09.71C117.71,117.12,117.58,118.63,117.33,121.66Z"/><path class="cls-11" d="M130.81,123.51a8.73,8.73,0,0,1-2.53,1.06,8.36,8.36,0,0,1-2.63.11,6,6,0,0,1-3.78-1.48,4.06,4.06,0,0,1-1-3.43,4.4,4.4,0,0,1,1-2.4,4.64,4.64,0,0,1,2.24-1.39,8,8,0,0,1,3.18-.23,7.85,7.85,0,0,1,1.89.39,4.47,4.47,0,0,1,1.31.68,2.86,2.86,0,0,1,.81.9,3.45,3.45,0,0,1,.42,1.34,6,6,0,0,1-.11,1.79c-2.93-.39-4.4-.56-7.34-.82a3.23,3.23,0,0,0,.4,2.4,2.87,2.87,0,0,0,2.07,1,4.6,4.6,0,0,0,1.59-.08,6.26,6.26,0,0,0,1.66-.69Zm-2.41-4a3.81,3.81,0,0,0-.12-2,1.42,1.42,0,0,0-1.27-.8,1.84,1.84,0,0,0-1.57.53,3.8,3.8,0,0,0-.93,1.92C126.07,119.23,126.85,119.31,128.4,119.48Z"/><path class="cls-11" d="M139.37,125.3l-.15-.07a8.11,8.11,0,0,1-2.05.69,5.77,5.77,0,0,1-1.9,0,4.38,4.38,0,0,1-1.59-.53,2.12,2.12,0,0,1-.9-.91,1.79,1.79,0,0,1-.12-1.17c.19-.85.88-1.45,2.11-1.77a14.58,14.58,0,0,1,5.28-.09l.22-.82a2.46,2.46,0,0,0,.1-1.28,1.19,1.19,0,0,0-.47-.72,2,2,0,0,0-.88-.34,3,3,0,0,0-1,0,1.88,1.88,0,0,0-.84.41,2.94,2.94,0,0,0-.74,1l-2.2-.33.35-1.58q1.17-.19,1.95-.27c.51,0,1-.08,1.51-.09s.93,0,1.31,0,.76.08,1.13.14a7.26,7.26,0,0,1,2.22.7,2,2,0,0,1,1,1.14,2.93,2.93,0,0,1-.1,1.78c-.41,1.34-.62,2-1,3.34a8.35,8.35,0,0,0-.24.88,1.82,1.82,0,0,0,0,.48.67.67,0,0,0,.11.27.78.78,0,0,0,.23.21l.55.26-.18.56c-1.63-.33-2.45-.49-4.09-.79Zm.45-3a6,6,0,0,0-2.75,0,1.66,1.66,0,0,0-1.19,1.23.9.9,0,0,0,.18.88,1.58,1.58,0,0,0,1,.45,2.38,2.38,0,0,0,1,0,2.09,2.09,0,0,0,.88-.44,1.35,1.35,0,0,0,.48-.7Z"/><path class="cls-11" d="M151.36,121.29l.14.06a6.38,6.38,0,0,1,2.15-.61,5.86,5.86,0,0,1,2.07.18,10.8,10.8,0,0,1,1.44.51l-1,2.3-2.06-.55a1.66,1.66,0,0,0-.21-.88,1.18,1.18,0,0,0-.74-.47,1.7,1.7,0,0,0-.61,0,2.93,2.93,0,0,0-.69.18,1.79,1.79,0,0,0-.52.33,1.88,1.88,0,0,0-.31.4,5.13,5.13,0,0,0-.28.65l-1,2.7a6.1,6.1,0,0,0-.35,1.14.77.77,0,0,0,.12.57,1.47,1.47,0,0,0,.68.45l-.22.56c-2.14-.54-3.21-.79-5.37-1.25l.19-.56a2,2,0,0,0,.83-.13,1.13,1.13,0,0,0,.44-.43,6.21,6.21,0,0,0,.46-1.09c.48-1.4.72-2.1,1.21-3.5.14-.41.24-.73.29-.93a1.19,1.19,0,0,0,0-.52.72.72,0,0,0-.24-.37,2.86,2.86,0,0,0-.72-.37l.19-.58c1.3.25,1.95.38,3.25.65l1.47.35C151.75,120.55,151.62,120.8,151.36,121.29Z"/><path class="cls-11" d="M162.66,131.33a9.56,9.56,0,0,1-2.15.31,5.73,5.73,0,0,1-1.74-.26A3.37,3.37,0,0,1,156.7,130a2.51,2.51,0,0,1,.11-2.25l2.08-4.64-1.44-.41.25-.57a3.87,3.87,0,0,0,1.15,0,1.76,1.76,0,0,0,.72-.29,3.17,3.17,0,0,0,.62-.64,9.66,9.66,0,0,0,.68-1.07c1.12.32,1.68.49,2.8.83-.4.83-.59,1.24-1,2.06,1.31.4,2,.61,3.26,1l-.52,1c-1.29-.42-1.93-.63-3.23-1l-1.78,3.71a7,7,0,0,0-.55,1.41,1.07,1.07,0,0,0,.07.77.91.91,0,0,0,.57.42,2.55,2.55,0,0,0,.55.13,2.69,2.69,0,0,0,.58,0,5.41,5.41,0,0,0,.7-.12C162.47,130.79,162.53,131,162.66,131.33Z"/><path class="cls-12" d="M151.45,105.43a1.19,1.19,0,0,0-.4.37c-.68,1.33-1.85,1.36-3.13,1.32-1.92-.06-3.86,0-5.8,0-1,0-1.36-.49-1.24-1.45a2.75,2.75,0,0,1,2.13-2.39,14.27,14.27,0,0,1,2.27-.33,2.09,2.09,0,0,0,2.14-1.65c.13-.53.36-1.05.51-1.58a4.89,4.89,0,0,0-3.33-6.17,9.77,9.77,0,0,0-3.8-.34c-5.75.76-10-1.68-13.36-6-1-1.35-1.91-2.85-2.85-4.27a1,1,0,0,0-.22.13c1,1.56,1.9,3.15,2.92,4.68a1.38,1.38,0,0,1,.18,1.49,21.44,21.44,0,0,0-1.08,3.41,6,6,0,0,0,.57,4.28c1,1.83.76,2.77-.94,4-1.24.9-2.68,1.56-3.82,2.56a8.59,8.59,0,0,1-7,2.09,9.3,9.3,0,0,0-1.75,0c-.85,0-1.1-.46-1.07-1.15a2.31,2.31,0,0,1,1.41-2.1,2.27,2.27,0,0,1,1-.26c2.37.11,4.12-1.14,5.81-2.56a3.34,3.34,0,0,0,.89-4.58c-1.31-2.63-2.58-5.29-3.85-7.94-.18-.39-.3-.81-.48-1.2-.28-.63-.06-1,.57-1.17a19.76,19.76,0,0,0,3.14-1.13c-.44,0-.9,0-1.34.08a21,21,0,0,0-7.33,2.82,58.11,58.11,0,0,1-6.08,3,15.64,15.64,0,0,1-3.37.58c.07-.8.17-1.4.16-2a1.62,1.62,0,0,0-.32-1c-1.07-1.13-2.19-2.21-3.29-3.31a3.45,3.45,0,0,0-.41-.35,7.47,7.47,0,0,0,2.5,4,1.62,1.62,0,0,1,.57,1.19,13.4,13.4,0,0,0,.94,7.13,6.81,6.81,0,0,1-.66,6.84c-1.82,3-1.71,3-5.23,3-2,0-4,0-6.07,0-.82,0-1-.34-.79-1a3.49,3.49,0,0,1,2.82-2.82c.83-.18,1.68-.31,2.53-.44,1.25-.19,1.51-1.18,1.83-2.16a1.86,1.86,0,0,0-.62-2.22c-1.11-.92-2.24-1.82-3.34-2.75a26.74,26.74,0,0,1-6.8-8.37c-.4-.77-.67-1.63-1.07-2.43a10,10,0,0,0,1.12,4.41c.71,1.35,1.54,2.63,2.37,4a8.5,8.5,0,0,1-5.71-1.19c-1.64-1.06-3.11-2.39-4.57-3.54A8.92,8.92,0,0,0,81,90.31a1.91,1.91,0,0,1,.55,2.37,4.87,4.87,0,0,1-2.67,3.22c-2,1.09-4,2.4-5.94,3.68a12.9,12.9,0,0,0-4.52,5.11,1.27,1.27,0,0,1-1.28.81c-2.89,0-5.77,0-8.66,0-1,0-1.17-.19-.86-1.22A3.26,3.26,0,0,1,60,101.88a8.16,8.16,0,0,0,5.11-3.66q3.06-4.59,6.1-9.2a6.63,6.63,0,0,0,.57-6.15c-.59-1.7-.91-3.49-1.35-5.24-.06-.23-.11-.46-.15-.7L70,77v3.61l-.3.07a30,30,0,0,1-1.28-2.77c-1.28-3.46-2.21-7-1.47-10.7a11.62,11.62,0,0,1,2.64-5.29c1.12-1.34,2.22-2.7,3.32-4.06a3.23,3.23,0,0,0,.89-2.7A2.07,2.07,0,0,0,70.6,53.7a2.22,2.22,0,0,1-2.74.06C66.67,53,66.3,52.2,66.65,51a2.79,2.79,0,0,0-1-3.25,1.33,1.33,0,0,1-.44-1.56,2.51,2.51,0,0,0-.09-2c-.37-.67.14-1.08.69-1.37,1.92-1,3.87-2,5.76-3.07.72-.4,1.3-1.06,2-1.53a4.68,4.68,0,0,1,1.39-.54c.93-.25,1.9-.4,2.83-.66.58-.16.78-.55.59-1.21A3.21,3.21,0,0,1,79,32.92c.07.23.13.41.18.59l1.92-.76c-.08.45-.11.63-.14.85.13,0,.23,0,.3,0a3.39,3.39,0,0,1,3.33.22,4.42,4.42,0,0,0,1.31.39c1.52.26,3,.34,4.27,1.58A8,8,0,0,0,92.71,37,6.38,6.38,0,0,1,96,40.14a9.46,9.46,0,0,1,.4,1.28L95,40.81l-.14.2.79.61a5.46,5.46,0,0,1,2.5,4,3,3,0,0,0,.79,1.52c1.6,1.89,1.27,4.21,1.51,6.4-1.11,1.72-.58,3.85-1.54,5.68-1.22,2.36,1,6,3.81,6.45a55,55,0,0,0,7.67.8,73.8,73.8,0,0,1,19.05,2.8,15.78,15.78,0,0,1,4.14,2.13c2.73,1.82,5.43,1.62,8.17.15a2.66,2.66,0,0,0,1.53-3.21c-.47-3-3.11-5.25-6.48-5.78a26.22,26.22,0,0,0-9.21.64,20.44,20.44,0,0,1-5.27.46c-2.77-.23-3.77-2.89-2-5.07A5.46,5.46,0,0,1,125,56.12c.4,0,.92-.2,1.08.49,0,.14.55.24.84.22,1.41-.11,2.82-.27,4.1-.39l-1.59.88.92.21-1.51.61.74.29a.57.57,0,0,1,0,.18L127.4,59l.94.34c-.07.14-.14.28-.2.42-.78-.13-1.58-.25-2.35-.42-.92-.21-1.82-.56-2.75-.69a3,3,0,0,0-1.68.32,1.64,1.64,0,0,0-.35,2.86,4,4,0,0,0,3.7.87c1.61-.26,3.18-.76,4.79-.9a49.82,49.82,0,0,1,7.42-.27,10.15,10.15,0,0,1,7.68,4.35,5.07,5.07,0,0,1,.72,5,7,7,0,0,1-4.78,4.49,8.35,8.35,0,0,1-4.41.51c.59.76,1.12,1.39,1.61,2.06,1.32,1.77,2.65,3.53,3.91,5.34a6.44,6.44,0,0,1,.68,1.79c0,.17-.08.39-.19.82a10.88,10.88,0,0,0,2.05,1.5,51.44,51.44,0,0,0,6,2.33c1.69.52,2.37.92,2.08,2.63-.45,2.81.6,5.39.85,8.09a9,9,0,0,0,.08.91A3.72,3.72,0,0,1,151.45,105.43Z"/><text class="cls-13" transform="translate(59.69 -18.06)">Dr<tspan class="cls-14" x="9.32" y="0">i</tspan><tspan x="11.56" y="0">ving </tspan><tspan class="cls-15" x="29.36" y="0">A</tspan><tspan x="34.7" y="0">cade</tspan><tspan class="cls-16" x="51.79" y="0">m</tspan><tspan x="58.83" y="0">y</tspan></text><text class="cls-13" transform="translate(59.69 -18.06)">Dr<tspan class="cls-14" x="9.32" y="0">i</tspan><tspan x="11.56" y="0">ving </tspan><tspan class="cls-15" x="29.36" y="0">A</tspan><tspan x="34.7" y="0">cade</tspan><tspan class="cls-16" x="51.79" y="0">m</tspan><tspan x="58.83" y="0">y</tspan></text></svg>