<svg id="Layer_1" data-name="Layer 1" xmlns="http://www.w3.org/2000/svg" viewBox="0 0 179.54 162.32"><defs><style>.cls-1,.cls-12,.cls-3{fill:#231f20;}.cls-2{fill:#b83535;}.cls-3{font-size:12px;}.cls-12,.cls-3{font-family:Cambria;}.cls-4{letter-spacing:-0.02em;}.cls-5{letter-spacing:-0.01em;}.cls-6{letter-spacing:-0.02em;}.cls-7{fill:#a02c2b;}.cls-8{fill:#b93535;}.cls-9{fill:#c63734;}.cls-10,.cls-11{fill:#fff;}.cls-10{stroke:#000;stroke-miterlimit:10;stroke-width:0.25px;}.cls-12{font-size:8.67px;}.cls-13{letter-spacing:-0.02em;}.cls-14{letter-spacing:-0.01em;}.cls-15{letter-spacing:-0.02em;}</style></defs><path class="cls-1" d="M89.12,37c4.81-4.31,9.13-8.71,14-12.42C117,13.9,131.8,14.31,145.18,25.65c10.82,9.17,16.57,20.53,14.37,35.12a61.09,61.09,0,0,1-12.83,29.45,269.5,269.5,0,0,1-18.43,20.67c-7.25,7.37-15,14.28-22.57,21.28C100.47,137,95,141.65,89.45,146.58c-3.44-3-6.94-5.85-10.21-9C66.42,125.5,53.42,113.55,41,101,32,91.9,24.76,81.36,21,68.78c-5.86-19.65.24-34.85,16.77-46.17,11.34-7.76,23.26-7.82,34.68-.23,5.2,3.45,9.63,8.07,14.37,12.2A31.31,31.31,0,0,1,89.12,37Z"/><path class="cls-2" d="M33.57,145.71a36,36,0,0,0-27.3,0,33,33,0,0,1,7.11-12.31c-5.05-3.33-8.08-4.71-14.81-6.28,15.11-5,27.5-5,42.7,0Z"/><text class="cls-3" transform="translate(46.02 156.59)">Dr<tspan class="cls-4" x="12.9" y="0">i</tspan><tspan x="16" y="0">ving </tspan><tspan class="cls-5" x="40.65" y="0">A</tspan><tspan x="48.03" y="0">cade</tspan><tspan class="cls-6" x="71.69" y="0">m</tspan><tspan x="81.44" y="0">y</tspan></text><path class="cls-7" d="M33.57,145.71s-1.93-13.2-9.5-10.06l17.2-8.53Z"/><path class="cls-8" d="M146,145.76a36,36,0,0,1,27.3,0,32.65,32.65,0,0,0-7.11-12.3c5.06-3.34,8.08-4.71,14.81-6.28-15.11-5-27.5-5-42.69,0C141.36,134.61,142.89,138.33,146,145.76Z"/><path class="cls-7" d="M146,145.76s1.93-13.2,9.51-10l-17.2-8.53Z"/><path class="cls-9" d="M155.55,135.65C112,119,67.6,119,24.07,135.65l-7.7-18.59c48.48-18.7,98.4-18.7,146.88,0Z"/><path class="cls-10" d="M37.88,114l.25.54a4.07,4.07,0,0,0-.59.38.73.73,0,0,0-.26.38.85.85,0,0,0,0,.47,6.69,6.69,0,0,0,.27.67l3.85,8.22,2.1-.61a2.66,2.66,0,0,0,.94-.44,1.41,1.41,0,0,0,.46-.64,2.68,2.68,0,0,0,.14-1,8.15,8.15,0,0,0-.08-1l1.53-.41c.45,1.38.68,2.07,1.14,3.45-4.12,1.09-6.17,1.69-10.2,3l-.28-.54a3.52,3.52,0,0,0,.53-.38.66.66,0,0,0,.21-.38,1,1,0,0,0-.07-.47q-.11-.27-.3-.66l-3.55-7c-.13-.26-.25-.47-.35-.64a1.09,1.09,0,0,0-.37-.37,1,1,0,0,0-.51-.15,3.86,3.86,0,0,0-.78.05L31.7,116C34.16,115.15,35.39,114.77,37.88,114Z"/><path class="cls-10" d="M49.21,123.05a1.52,1.52,0,0,0,.62-.47.8.8,0,0,0,.09-.54,5.74,5.74,0,0,0-.35-1.13c-.59-1.57-.89-2.35-1.49-3.92a3.36,3.36,0,0,0-.3-.65,1.1,1.1,0,0,0-.35-.36,1.08,1.08,0,0,0-.49-.13,3.33,3.33,0,0,0-.69,0L46,115.3c1.27-.35,1.91-.52,3.19-.85l1.47-.34c.85,2.42,1.27,3.63,2.11,6,.11.32.2.56.27.73a3.61,3.61,0,0,0,.19.39,1.54,1.54,0,0,0,.18.23,1.37,1.37,0,0,0,.23.17,1.2,1.2,0,0,0,.35.11,2.93,2.93,0,0,0,.54,0l.19.57c-2.14.46-3.2.71-5.32,1.24Zm.22-12.24.73,2.08-3.25.76c-.32-.82-.47-1.24-.79-2.06C47.44,111.27,48.1,111.11,49.43,110.81Z"/><path class="cls-10" d="M61.83,121.13a8.77,8.77,0,0,1-2.92.06,4.52,4.52,0,0,1-2.28-1,5,5,0,0,1-1.46-2.33,4.32,4.32,0,0,1-.2-2.06,3.28,3.28,0,0,1,.76-1.63A4.77,4.77,0,0,1,57.35,113a9,9,0,0,1,2.28-.68,7.39,7.39,0,0,1,4.62.4,4.22,4.22,0,0,1,2.16,3,4.43,4.43,0,0,1-.13,2.63,3.8,3.8,0,0,1-1.6,1.8A8.08,8.08,0,0,1,61.83,121.13ZM58.59,117a6.36,6.36,0,0,0,1.31,2.63,2,2,0,0,0,1.86.62,1.82,1.82,0,0,0,.92-.4,1.63,1.63,0,0,0,.47-.78,3.28,3.28,0,0,0,.07-1.11A8.16,8.16,0,0,0,63,116.5a6,6,0,0,0-1.26-2.69,2,2,0,0,0-1.89-.64A1.69,1.69,0,0,0,58.26,115,6.64,6.64,0,0,0,58.59,117Z"/><path class="cls-10" d="M81.5,118.7c-2.18.13-3.27.21-5.44.41l-.08-.58a1.33,1.33,0,0,0,.68-.35.88.88,0,0,0,.21-.53,5.62,5.62,0,0,0-.08-1.16l-.3-2.34c-.06-.42-.11-.76-.17-1a3.77,3.77,0,0,0-.2-.64,1.22,1.22,0,0,0-.27-.41,1.29,1.29,0,0,0-.34-.25,1.11,1.11,0,0,0-.4-.13,2.52,2.52,0,0,0-.56,0,2.32,2.32,0,0,0-.91.3,2.19,2.19,0,0,0-.73.65,1.07,1.07,0,0,0-.2.81c.21,1.35.32,2,.54,3.37a6.62,6.62,0,0,0,.26,1.14,1.12,1.12,0,0,0,.35.49,1.67,1.67,0,0,0,.78.21l.09.57c-2.16.22-3.23.34-5.38.62l-.12-.58a1.64,1.64,0,0,0,.69-.39.91.91,0,0,0,.18-.53A6.15,6.15,0,0,0,70,117.2c-.28-1.44-.41-2.15-.69-3.59-.08-.43-.15-.74-.21-1a1.35,1.35,0,0,0-.24-.48,1,1,0,0,0-.4-.26,3.08,3.08,0,0,0-.85-.1l-.12-.59c1.31-.2,2-.29,3.28-.47l1.51-.16c0,.51,0,.76,0,1.28h.15A9.84,9.84,0,0,1,73.6,111a6.13,6.13,0,0,1,1.12-.55,4.78,4.78,0,0,1,1.28-.28,5.47,5.47,0,0,1,1.67.08,2.7,2.7,0,0,1,1.12.52,2.42,2.42,0,0,1,.67.93,4.49,4.49,0,0,1,.31,1.32c.13,1.28.2,1.93.33,3.21,0,.26.06.5.09.73a3,3,0,0,0,.14.53,1.13,1.13,0,0,0,.22.32,1,1,0,0,0,.36.19,3,3,0,0,0,.53.12Z"/><path class="cls-10" d="M101.77,116.44a3.44,3.44,0,0,0,0,.93.75.75,0,0,0,.26.44,2.13,2.13,0,0,0,.8.33l-.06.58c-2.34-.15-3.51-.2-5.85-.26l0-.58a3,3,0,0,0,.86-.24.77.77,0,0,0,.29-.37,3.73,3.73,0,0,0,.13-1c.08-1.41.12-2.12.19-3.53-2.13-.07-3.2-.09-5.33-.1l0,3.53a5.06,5.06,0,0,0,0,.57,1.65,1.65,0,0,0,.08.44.8.8,0,0,0,.2.28,1,1,0,0,0,.35.2,3.08,3.08,0,0,0,.55.15v.59c-2.36,0-3.54,0-5.9,0l0-.58a4.49,4.49,0,0,0,.66-.2.81.81,0,0,0,.36-.29,1.19,1.19,0,0,0,.14-.46c0-.19,0-.42,0-.7-.07-3-.1-4.56-.17-7.6a6.47,6.47,0,0,0,0-.7,1,1,0,0,0-.17-.46,1,1,0,0,0-.4-.28A3.75,3.75,0,0,0,88,107v-.58c2.6-.06,3.91-.06,6.52,0l0,.58a3,3,0,0,0-.9.28.92.92,0,0,0-.34.42,3.11,3.11,0,0,0-.11.94l0,2.94c2.15,0,3.23,0,5.38.11l.16-2.94a4,4,0,0,0,0-.93.78.78,0,0,0-.3-.44,2.67,2.67,0,0,0-.89-.32l0-.58c2.59.07,3.89.13,6.48.28l-.06.58a3.55,3.55,0,0,0-.81.18.79.79,0,0,0-.37.29,1.1,1.1,0,0,0-.17.4,4,4,0,0,0-.09.7C102.15,111.89,102,113.41,101.77,116.44Z"/><path class="cls-10" d="M115.25,118.29a8.48,8.48,0,0,1-2.52,1,8.14,8.14,0,0,1-2.64.11,5.86,5.86,0,0,1-3.77-1.47,4,4,0,0,1-.95-3.43,4.36,4.36,0,0,1,1-2.4,4.55,4.55,0,0,1,2.25-1.39,8,8,0,0,1,3.18-.23,7.66,7.66,0,0,1,1.88.39,4.79,4.79,0,0,1,1.32.67,3,3,0,0,1,.81.91,3.62,3.62,0,0,1,.42,1.34,6,6,0,0,1-.12,1.78c-2.92-.38-4.39-.55-7.34-.81a3.23,3.23,0,0,0,.41,2.4,2.83,2.83,0,0,0,2.07,1,4.63,4.63,0,0,0,1.59-.08,6.26,6.26,0,0,0,1.66-.69Zm-2.4-4a3.9,3.9,0,0,0-.13-2,1.43,1.43,0,0,0-1.27-.81,1.86,1.86,0,0,0-1.56.54,3.76,3.76,0,0,0-.93,1.91Z"/><path class="cls-10" d="M123.81,120.08l-.15-.07a8.18,8.18,0,0,1-2,.69,5.77,5.77,0,0,1-1.9,0,4.56,4.56,0,0,1-1.6-.53,2.15,2.15,0,0,1-.89-.91,1.79,1.79,0,0,1-.12-1.17c.19-.86.88-1.45,2.1-1.77a14.59,14.59,0,0,1,5.28-.09l.23-.82a2.58,2.58,0,0,0,.1-1.28,1.24,1.24,0,0,0-.47-.72,2,2,0,0,0-.89-.34,2.9,2.9,0,0,0-1,0,1.91,1.91,0,0,0-.85.41,2.83,2.83,0,0,0-.73,1l-2.21-.33.36-1.58c.78-.13,1.43-.22,1.94-.27a13,13,0,0,1,1.51-.09q.73,0,1.32,0c.38,0,.76.08,1.13.14a7.26,7.26,0,0,1,2.22.7,2.07,2.07,0,0,1,1,1.13,3,3,0,0,1-.11,1.79c-.41,1.34-.62,2-1,3.34-.11.38-.19.67-.23.88a1.24,1.24,0,0,0,0,.48.55.55,0,0,0,.11.27.61.61,0,0,0,.22.2,5.07,5.07,0,0,0,.56.27l-.18.56c-1.63-.33-2.45-.49-4.09-.79C123.56,120.75,123.65,120.53,123.81,120.08Zm.46-3a6,6,0,0,0-2.76,0,1.68,1.68,0,0,0-1.19,1.23.9.9,0,0,0,.18.88,1.61,1.61,0,0,0,1,.45,2.4,2.4,0,0,0,1,0,2.35,2.35,0,0,0,.88-.44,1.48,1.48,0,0,0,.48-.7Z"/><path class="cls-10" d="M135.81,116.07l.14.06a6.33,6.33,0,0,1,2.14-.61,5.69,5.69,0,0,1,2.08.18,8.89,8.89,0,0,1,1.44.51l-1,2.3-2.07-.55a1.57,1.57,0,0,0-.2-.88,1.13,1.13,0,0,0-.75-.47,1.46,1.46,0,0,0-.6,0,2.07,2.07,0,0,0-.69.18,1.66,1.66,0,0,0-.53.33,1.88,1.88,0,0,0-.31.4c-.07.14-.17.36-.28.65-.41,1.08-.61,1.62-1,2.69a6.1,6.1,0,0,0-.34,1.15.78.78,0,0,0,.12.57,1.43,1.43,0,0,0,.67.45l-.21.56c-2.14-.54-3.22-.79-5.38-1.25l.19-.56a1.9,1.9,0,0,0,.83-.13,1.09,1.09,0,0,0,.45-.43,6.8,6.8,0,0,0,.45-1.09c.49-1.4.73-2.1,1.21-3.5.15-.42.24-.73.29-.93a1.19,1.19,0,0,0,0-.52.66.66,0,0,0-.24-.37,2.29,2.29,0,0,0-.72-.37l.2-.58c1.3.25,2,.38,3.24.65l1.48.35C136.19,115.33,136.06,115.57,135.81,116.07Z"/><path class="cls-10" d="M147.1,126.11a10.09,10.09,0,0,1-2.14.31,6.06,6.06,0,0,1-1.74-.26,3.31,3.31,0,0,1-2.07-1.38,2.48,2.48,0,0,1,.11-2.25c.83-1.86,1.24-2.79,2.07-4.64l-1.43-.41.25-.57a3.86,3.86,0,0,0,1.15,0,1.78,1.78,0,0,0,.72-.3,3.17,3.17,0,0,0,.62-.64,8.14,8.14,0,0,0,.67-1.07l2.8.84c-.39.83-.59,1.24-1,2.06,1.31.4,2,.61,3.26,1l-.53,1c-1.28-.43-1.93-.63-3.23-1l-1.78,3.71a6.31,6.31,0,0,0-.54,1.41,1.07,1.07,0,0,0,.06.77.93.93,0,0,0,.57.42,3,3,0,0,0,1.13.15,4.31,4.31,0,0,0,.71-.13Z"/><path class="cls-11" d="M135.9,100.21a1,1,0,0,0-.4.37c-.68,1.33-1.86,1.36-3.13,1.32-1.93-.07-3.87,0-5.8,0-1,0-1.36-.49-1.25-1.45A2.77,2.77,0,0,1,127.45,98a14.57,14.57,0,0,1,2.28-.33A2.08,2.08,0,0,0,131.86,96c.14-.53.36-1,.52-1.57a4.9,4.9,0,0,0-3.33-6.17,9.8,9.8,0,0,0-3.8-.34c-5.75.75-10-1.68-13.37-6-1-1.36-1.9-2.85-2.85-4.28l-.22.14c1,1.56,1.91,3.15,2.93,4.68a1.41,1.41,0,0,1,.18,1.49,20.5,20.5,0,0,0-1.09,3.41,6,6,0,0,0,.57,4.28c1,1.82.76,2.77-.94,4-1.23.9-2.67,1.56-3.82,2.56a8.56,8.56,0,0,1-7,2.09,10.33,10.33,0,0,0-1.76,0c-.84.06-1.09-.45-1.06-1.14A2.33,2.33,0,0,1,98.19,97a2.45,2.45,0,0,1,1-.25c2.38.11,4.13-1.14,5.82-2.57a3.32,3.32,0,0,0,.88-4.57c-1.31-2.63-2.57-5.29-3.84-7.94-.19-.39-.31-.81-.48-1.2-.29-.63-.07-1,.56-1.17a20.9,20.9,0,0,0,3.15-1.13c-.45,0-.9,0-1.34.08a21,21,0,0,0-7.34,2.82,57.15,57.15,0,0,1-6.08,3,15.43,15.43,0,0,1-3.37.58c.07-.8.17-1.4.16-2a1.55,1.55,0,0,0-.32-1c-1.07-1.13-2.18-2.21-3.28-3.31-.08-.08-.17-.15-.42-.35a7.53,7.53,0,0,0,2.5,4,1.64,1.64,0,0,1,.58,1.19,13.3,13.3,0,0,0,.93,7.13,6.76,6.76,0,0,1-.66,6.84c-1.82,3-1.71,3-5.22,3-2,0-4.06,0-6.08,0-.81,0-.94-.34-.78-1a3.49,3.49,0,0,1,2.81-2.82c.84-.18,1.68-.31,2.54-.44,1.24-.19,1.5-1.19,1.82-2.16a1.86,1.86,0,0,0-.62-2.22c-1.1-.92-2.23-1.82-3.33-2.75a26.77,26.77,0,0,1-6.81-8.37c-.4-.78-.66-1.63-1.06-2.43A10.17,10.17,0,0,0,71,82.47c.71,1.35,1.54,2.63,2.37,4a8.54,8.54,0,0,1-5.7-1.19c-1.64-1.06-3.11-2.39-4.58-3.54a9,9,0,0,0,2.32,3.32c.85.71.83,1.35.55,2.37a4.86,4.86,0,0,1-2.66,3.22c-2,1.09-4,2.4-5.94,3.68a12.92,12.92,0,0,0-4.53,5.11,1.26,1.26,0,0,1-1.27.81c-2.89,0-5.77,0-8.66,0-1,0-1.18-.19-.86-1.22a3.26,3.26,0,0,1,2.45-2.39A8.14,8.14,0,0,0,49.58,93c2-3.06,4.09-6.12,6.1-9.2a6.63,6.63,0,0,0,.58-6.15c-.59-1.7-.92-3.49-1.36-5.24-.06-.23-.1-.46-.15-.7l-.28,0v3.61l-.3.07c-.43-.92-.93-1.82-1.28-2.77-1.27-3.46-2.2-7-1.47-10.7a11.73,11.73,0,0,1,2.65-5.29c1.11-1.34,2.22-2.7,3.32-4.06a3.26,3.26,0,0,0,.89-2.7A2.08,2.08,0,0,0,55,48.47a2.21,2.21,0,0,1-2.74.07c-1.18-.8-1.55-1.56-1.21-2.77a2.78,2.78,0,0,0-1-3.25A1.32,1.32,0,0,1,49.62,41a2.59,2.59,0,0,0-.09-2c-.37-.67.13-1.08.68-1.37,1.92-1,3.87-2,5.76-3.07.73-.4,1.31-1.07,2-1.53a4.52,4.52,0,0,1,1.39-.54c.94-.25,1.91-.4,2.84-.66.57-.16.77-.55.59-1.21a3.18,3.18,0,0,1,.63-2.84c.07.23.12.41.17.59l1.93-.76c-.08.44-.11.63-.14.84a1,1,0,0,0,.3,0,3.34,3.34,0,0,1,3.32.22,4.51,4.51,0,0,0,1.31.39c1.52.26,3,.34,4.28,1.58a7.79,7.79,0,0,0,2.57,1.18,6.38,6.38,0,0,1,3.31,3.18,9.46,9.46,0,0,1,.4,1.28l-1.43-.61c0,.06-.09.13-.14.2l.78.61a5.4,5.4,0,0,1,2.5,4,3,3,0,0,0,.8,1.51c1.59,1.89,1.27,4.21,1.51,6.4C83.78,50,84.3,52.15,83.35,54c-1.22,2.36,1,6,3.8,6.45a56.65,56.65,0,0,0,7.68.8,73.3,73.3,0,0,1,19,2.8A16,16,0,0,1,118,66.17c2.72,1.82,5.43,1.62,8.16.15a2.64,2.64,0,0,0,1.53-3.21c-.47-3-3.1-5.25-6.47-5.78A26.27,26.27,0,0,0,112,58a20,20,0,0,1-5.27.45c-2.76-.22-3.76-2.88-2-5.06a5.46,5.46,0,0,1,4.79-2.46c.4,0,.91-.21,1.07.49,0,.13.56.24.85.22,1.4-.11,2.81-.27,4.09-.39l-1.59.88.93.21-1.51.61.74.29,0,.18-2.25.38.93.34-.2.42c-.78-.13-1.57-.25-2.35-.42s-1.82-.56-2.75-.69a3,3,0,0,0-1.67.32,1.64,1.64,0,0,0-.36,2.86,4,4,0,0,0,3.71.87c1.6-.26,3.18-.76,4.78-.9a50,50,0,0,1,7.43-.27A10.15,10.15,0,0,1,129,60.65a5,5,0,0,1,.72,5.05A7,7,0,0,1,125,70.19a8.43,8.43,0,0,1-4.41.51c.6.75,1.13,1.39,1.62,2.06,1.31,1.77,2.64,3.53,3.9,5.34a6.79,6.79,0,0,1,.69,1.79c0,.17-.09.39-.2.82a11.71,11.71,0,0,0,2,1.5,52.31,52.31,0,0,0,6,2.33c1.69.51,2.36.91,2.08,2.63-.45,2.81.6,5.39.84,8.09,0,.31,0,.61.08.91A3.73,3.73,0,0,1,135.9,100.21Z"/><text class="cls-12" transform="translate(59.69 -18.06)">Dr<tspan class="cls-13" x="9.32" y="0">i</tspan><tspan x="11.56" y="0">ving </tspan><tspan class="cls-14" x="29.36" y="0">A</tspan><tspan x="34.7" y="0">cade</tspan><tspan class="cls-15" x="51.79" y="0">m</tspan><tspan x="58.83" y="0">y</tspan></text></svg>