<svg id="Layer_1" data-name="Layer 1" xmlns="http://www.w3.org/2000/svg" viewBox="0 0 1967.95 1880.45"><defs><style>.cls-1{font-size:91.25px;fill:#231f20;}.cls-1,.cls-12,.cls-8{font-family:Cambria;}.cls-2{letter-spacing:-0.02em;}.cls-3{letter-spacing:0em;}.cls-4{letter-spacing:-0.01em;}.cls-5{letter-spacing:-0.02em;}.cls-6{fill:#a02d2b;}.cls-7{fill:#f4f4f5;}.cls-15,.cls-7{stroke:#231f20;stroke-miterlimit:10;stroke-width:0.25px;}.cls-8{font-size:126px;}.cls-12,.cls-15,.cls-16,.cls-8{fill:#fff;}.cls-9{letter-spacing:-0.02em;}.cls-10{letter-spacing:-0.01em;}.cls-11{letter-spacing:-0.02em;}.cls-12{font-size:165px;}.cls-13{letter-spacing:-0.03em;}.cls-14{fill:#c6c6c5;}.cls-17{fill:#a02e2b;}</style></defs><path d="M1905.41,941.08c0,162.59-42.92,315.15-118.05,447a907.73,907.73,0,0,1-186.82,230c-159.52,141.31-369.35,227.09-599.21,227.09C770.91,1845.16,560.62,1759,401,1617a907.88,907.88,0,0,1-186-229.55c-74.93-131.7-117.73-284.06-117.73-446.41C97.25,441.77,502,37,1001.33,37S1905.41,441.77,1905.41,941.08Z"/><text class="cls-1" transform="translate(684.23 1707.5)">Dr<tspan class="cls-2" x="98.11" y="0">i</tspan><tspan class="cls-3" x="121.63" y="0">ving </tspan><tspan class="cls-4" x="309.07" y="0">A</tspan><tspan x="365.21" y="0">cade</tspan><tspan class="cls-5" x="545.12" y="0">m</tspan><tspan x="619.26" y="0">y</tspan></text><path d="M1223.13,1396.59q-27.21,24.93-54.4,49.86c-55.33,50.89-112.52,99.76-171.32,151.68-36.2-31.61-73-61.62-107.45-94.19q-56.64-53.64-113.58-107A1838,1838,0,0,1,1223.13,1396.59Z"/><path class="cls-6" d="M1735.31,694.85c-17.45,115.53-62.71,219.68-135,310-58,72.5-120.26,142-185.15,208.5q-4.42,4.56-8.9,9.1-22.71,23.08-45.94,45.65-4.36,4.26-8.76,8.48-17.36,16.79-34.91,33.34-14.18,13.38-28.45,26.65-32.39,30.17-65.07,60a1838,1838,0,0,0-446.75.35q-22.62-21.26-45.21-42.54l-11.94-11.26q-25.07-23.66-50.05-47.39l-16.89-16.07Q618,1247,584.05,1214q-48.74-47.31-96.6-95.48c-95.22-96-171-207-210.43-339.37-61.65-206.82,2.58-366.82,176.53-485.95,119.34-81.74,244.85-82.34,365.11-2.47,54.7,36.34,101.28,85,151.23,128.38,9.2,8,16.9,17.72,24.08,25.35,50.65-45.4,96.15-91.68,147.12-130.83,146.05-112.18,302.14-107.83,443,11.57C1697.91,421.69,1758.5,541.27,1735.31,694.85Z"/><path class="cls-7" d="M409.23,1620.51a378.43,378.43,0,0,0-287.37,0c18.73-53.61,33.78-80.8,74.92-129.52-53.24-35.11-85.1-49.62-155.95-66.12,159.07-52.63,289.51-52.91,449.43,0C457.85,1503.14,441.64,1542.26,409.23,1620.51Z"/><text class="cls-8" transform="translate(547.07 1685)">Dr<tspan class="cls-9" x="135.47" y="0">i</tspan><tspan x="167.96" y="0">ving </tspan><tspan class="cls-10" x="426.79" y="0">A</tspan><tspan x="504.31" y="0">cade</tspan><tspan class="cls-11" x="752.74" y="0">m</tspan><tspan x="855.11" y="0">y</tspan></text><text class="cls-12" transform="translate(776.38 1551.69)"><tspan class="cls-13">T</tspan><tspan x="92.17" y="0">ruck</tspan></text><path class="cls-14" d="M409.23,1620.51s-20.27-139-100-105.87l181.05-89.76Z"/><path class="cls-7" d="M1592.43,1621.1a378.38,378.38,0,0,1,287.37,0c-18.74-53.6-33.78-80.79-74.92-129.52,53.24-35.1,85.1-49.62,155.95-66.11-159.07-52.63-289.51-52.91-449.44,0C1543.8,1503.72,1560,1542.85,1592.43,1621.1Z"/><path class="cls-14" d="M1592.43,1621.1s20.27-139,100-105.87l-181.06-89.76Z"/><path class="cls-15" d="M1774.27,1319c-10.61,25.6-19.47,47-27.75,67-17,41.06-31.47,76-53.28,128.65l-8.47-3.22Q1605,1481.3,1525,1458.25a1925.9,1925.9,0,0,0-301.84-61.66,1838,1838,0,0,0-446.75.35,1928.11,1928.11,0,0,0-300.08,61.64q-81.37,23.48-162.4,54.28a1,1,0,0,0-.22.08l-4.48,1.7c-21.91-52.9-36.42-87.92-53.53-129.24L228.17,1319q176.91-68.27,355.88-105c276.25-56.74,554.85-57,831.11-.67Q1595.57,1250.12,1774.27,1319Z"/><path class="cls-6" d="M454.62,1287.16l2.62,5.74a40,40,0,0,0-6.2,4,8,8,0,0,0-2.74,3.94,9.19,9.19,0,0,0,.24,5,53.83,53.83,0,0,0,2.81,7l40.57,86.55c8.81-2.66,13.23-4,22.07-6.49,4.41-1.27,7.72-2.78,9.94-4.58a15.65,15.65,0,0,0,4.83-6.8,27.39,27.39,0,0,0,1.4-10,94.64,94.64,0,0,0-.78-10.91c6.42-1.74,9.63-2.59,16.06-4.27,4.77,14.53,7.16,21.8,12,36.31-43.38,11.39-64.89,17.75-107.35,31.85l-2.93-5.66a32.46,32.46,0,0,0,5.59-4,6.76,6.76,0,0,0,2.18-4,10.52,10.52,0,0,0-.73-5,67.81,67.81,0,0,0-3.12-7l-37.37-74.09q-2-4-3.74-6.71a12.19,12.19,0,0,0-3.85-4,11.65,11.65,0,0,0-5.33-1.51,43.09,43.09,0,0,0-8.29.47l-2.93-5.66C415.42,1298.89,428.44,1294.83,454.62,1287.16Z"/><path class="cls-6" d="M573.83,1382q5.17-2.55,6.6-4.94a8.78,8.78,0,0,0,1-5.77q-.46-3.37-3.67-11.81c-6.28-16.52-9.41-24.78-15.69-41.29a41.36,41.36,0,0,0-3.21-6.89,10.63,10.63,0,0,0-3.7-3.75,11.58,11.58,0,0,0-5.09-1.42,47.21,47.21,0,0,0-7.35.24c-.95-2.41-1.42-3.62-2.36-6,13.4-3.68,20.12-5.46,33.61-8.91,6.18-1.44,9.27-2.14,15.46-3.53l22.17,63.57c1.16,3.33,2.12,5.9,2.86,7.69a32.48,32.48,0,0,0,2,4.08,12.41,12.41,0,0,0,1.9,2.42,10.77,10.77,0,0,0,2.43,1.77,11.37,11.37,0,0,0,3.62,1.13,31.64,31.64,0,0,0,5.7.29l2,5.91c-22.47,4.88-33.67,7.5-56,13.09C575.2,1385.55,574.75,1384.38,573.83,1382Zm2.35-128.83c3.07,8.76,4.6,13.14,7.66,21.91-13.71,3.07-20.55,4.67-34.2,8l-8.25-21.76C555.28,1258,562.23,1256.34,576.18,1253.21Z"/><path class="cls-6" d="M706.75,1361.75c-11.38,2-21.6,2.23-30.76.7a48.23,48.23,0,0,1-24-11c-6.84-5.87-12-14-15.36-24.5-2.58-8-3.33-15.3-2.19-21.78a34.93,34.93,0,0,1,8.1-17.13,49.68,49.68,0,0,1,17-12.27,97.3,97.3,0,0,1,24.05-7.21c20.21-3.49,36.51-2,48.53,4.28s19.55,16.93,22.83,31.92c2.32,10.61,1.8,19.83-1.42,27.69s-8.81,14.17-16.78,19S718.83,1359.65,706.75,1361.75Zm-34.18-44c3.7,12.78,8.35,22,13.88,27.68s12,7.87,19.5,6.57a19.06,19.06,0,0,0,9.72-4.22,16.5,16.5,0,0,0,4.9-8.19,34.26,34.26,0,0,0,.81-11.74,94.67,94.67,0,0,0-2.58-14.77c-3.26-13-7.63-22.49-13.19-28.31s-12.25-8.08-20-6.74c-5.64,1-9.8,3.08-12.45,6.29s-4,7.54-4.08,13S670.22,1309.62,672.57,1317.76Z"/><path class="cls-6" d="M913.72,1336.26c-22.91,1.35-34.35,2.21-57.19,4.27l-.85-6.09c3.53-1,5.92-2.22,7.17-3.67a9.72,9.72,0,0,0,2.2-5.6q.35-3.43-.81-12.2c-1.29-9.86-1.94-14.8-3.23-24.66q-.85-6.54-1.79-10.72a34.92,34.92,0,0,0-2.09-6.77,14,14,0,0,0-2.84-4.28,14.69,14.69,0,0,0-3.58-2.68,13.24,13.24,0,0,0-4.25-1.35,25,25,0,0,0-5.85,0,24.41,24.41,0,0,0-9.58,3.11,22.15,22.15,0,0,0-7.67,6.85,11.44,11.44,0,0,0-2.17,8.5l5.75,35.44a71.53,71.53,0,0,0,2.68,12.08,10.58,10.58,0,0,0,3.77,5.09c1.67,1.17,4.41,1.9,8.22,2.21.37,2.44.55,3.65.93,6.08-22.73,2.23-34.08,3.51-56.71,6.43-.48-2.41-.73-3.62-1.21-6q5.4-1.92,7.22-4.12a9.12,9.12,0,0,0,2-5.59q.13-3.39-1.53-12.12c-2.89-15.08-4.33-22.62-7.21-37.71q-1.29-6.78-2.23-10a13.47,13.47,0,0,0-2.5-5,9.48,9.48,0,0,0-4.26-2.75,31.94,31.94,0,0,0-8.89-1.08c-.5-2.49-.75-3.74-1.26-6.23,13.76-2.09,20.66-3.07,34.47-4.92,6.37-.72,9.56-1.06,15.94-1.73.1,5.39.15,8.08.27,13.46l1.54.12a116.28,116.28,0,0,1,12.46-9.35,61.64,61.64,0,0,1,11.78-5.78,51.65,51.65,0,0,1,13.52-2.91,57.24,57.24,0,0,1,17.53.8,28.19,28.19,0,0,1,11.79,5.53,24.63,24.63,0,0,1,7.12,9.76,49.46,49.46,0,0,1,3.25,13.84c1.38,13.55,2.08,20.32,3.46,33.87.28,2.71.61,5.25,1,7.62a22.49,22.49,0,0,0,1.48,5.63,10,10,0,0,0,2.31,3.34,10.46,10.46,0,0,0,3.73,2,32.51,32.51,0,0,0,5.61,1.25C913.38,1332.59,913.49,1333.81,913.72,1336.26Z"/><path class="cls-6" d="M1127.15,1312.43q-.6,7.14-.05,9.82a7.93,7.93,0,0,0,2.79,4.57q2.2,1.88,8.39,3.47c-.23,2.44-.34,3.66-.57,6.11-24.65-1.5-37-2-61.67-2.72.1-2.45.15-3.67.26-6.12,4.63-.8,7.66-1.63,9-2.52a7.67,7.67,0,0,0,3.07-3.84c.64-1.68,1.11-5.15,1.39-10.41.79-14.88,1.19-22.31,2-37.19-22.45-.76-33.68-1-56.14-1.11-.13,14.88-.2,22.33-.33,37.21q0,3.25.19,6a16.06,16.06,0,0,0,.91,4.56,7.86,7.86,0,0,0,2.06,3,12,12,0,0,0,3.73,2.12,36.78,36.78,0,0,0,5.8,1.6c0,2.45-.07,3.67-.12,6.12-24.84-.31-37.26-.26-62.09.26l-.2-6.13a41.15,41.15,0,0,0,6.9-2.13,8,8,0,0,0,3.74-3,11.15,11.15,0,0,0,1.51-4.85,62.87,62.87,0,0,0,.19-7.38c-.69-32-1-48-1.73-80a71.48,71.48,0,0,0-.48-7.34,10,10,0,0,0-1.79-4.8,9.67,9.67,0,0,0-4.23-3,40.32,40.32,0,0,0-7.8-1.94c-.07-2.45-.11-3.67-.19-6.12,27.45-.57,41.18-.62,68.63-.28l-.12,6.12c-4.62.87-7.76,1.87-9.47,3a9.07,9.07,0,0,0-3.61,4.38c-.71,1.83-1.08,5.11-1.13,9.88-.1,12.4-.16,18.6-.27,31,22.67.13,34,.36,56.66,1.13l1.65-31q.38-7-.31-9.82a8,8,0,0,0-3.14-4.56q-2.44-1.8-9.41-3.39c.1-2.45.16-3.67.26-6.12,27.29.75,40.93,1.35,68.17,3-.23,2.44-.35,3.66-.58,6.1a37.42,37.42,0,0,0-8.52,1.88,8.47,8.47,0,0,0-4,3,12.08,12.08,0,0,0-1.8,4.27,65.11,65.11,0,0,0-.93,7.4C1131.17,1264.59,1129.83,1280.54,1127.15,1312.43Z"/><path class="cls-6" d="M1269.07,1331.92c-9.41,5.54-18.24,9.24-26.59,11.08a87.49,87.49,0,0,1-27.72,1.17c-18.24-1.87-31.42-6.94-39.74-15.54s-11.76-20.58-10-36.06c1.12-10,4.56-18.41,10.47-25.27s13.77-11.76,23.64-14.67,21.06-3.75,33.47-2.46a87.93,87.93,0,0,1,19.85,4.13,50.09,50.09,0,0,1,13.82,7.12,31.61,31.61,0,0,1,8.54,9.56,36.85,36.85,0,0,1,4.41,14.11,62.8,62.8,0,0,1-1.2,18.75c-30.82-4.07-46.28-5.79-77.26-8.62-1.5,11.14-.07,19.56,4.23,25.3s11.53,9.11,21.82,10.22a50.37,50.37,0,0,0,16.74-.8c5.15-1.18,11-3.63,17.48-7.32C1264.27,1326.33,1265.88,1328.19,1269.07,1331.92Zm-25.34-42.42q2-14.12-1.31-21.51t-13.39-8.45a19.58,19.58,0,0,0-16.48,5.66q-6.75,6.65-9.78,20.12C1219.18,1286.82,1227.37,1287.66,1243.73,1289.5Z"/><path class="cls-6" d="M1359.17,1350.76l-1.62-.76a85.36,85.36,0,0,1-21.52,7.25,60.13,60.13,0,0,1-20,.13,47.35,47.35,0,0,1-16.76-5.56q-6.75-4-9.45-9.63a18.59,18.59,0,0,1-1.24-12.33c2-9,9.27-15.23,22.12-18.63s31.45-3.88,55.58-1l2.4-8.6q2.34-8.43,1-13.46a13.13,13.13,0,0,0-4.92-7.62,22.24,22.24,0,0,0-9.33-3.54,30.76,30.76,0,0,0-10.26-.19,19.31,19.31,0,0,0-8.9,4.29c-2.9,2.33-5.47,5.84-7.71,10.47-9.29-1.46-13.94-2.16-23.25-3.51,1.49-6.65,2.24-10,3.74-16.62,8.22-1.4,15.05-2.34,20.46-2.89s10.72-.86,15.92-.94,9.79,0,13.82.36,8,.8,11.92,1.49c10.1,1.77,17.89,4.23,23.36,7.3s9,7.06,10.64,12,1.26,11.18-1.1,18.81c-4.34,14.06-6.51,21.08-10.86,35.13-1.22,4-2,7.07-2.48,9.27a15.55,15.55,0,0,0-.39,5,6.57,6.57,0,0,0,1.13,2.9,8.35,8.35,0,0,0,2.38,2.11,51,51,0,0,0,5.86,2.77l-1.9,5.94c-17.18-3.54-25.8-5.2-43.07-8.32C1356.54,1357.77,1357.41,1355.43,1359.17,1350.76Zm4.76-31.58c-12.51-2-22.21-1.76-29,.53s-11,6.63-12.52,12.94c-.93,3.77-.29,6.85,1.88,9.25s5.61,4,10.31,4.78a25.93,25.93,0,0,0,10.83-.49,23.47,23.47,0,0,0,9.28-4.6,14.73,14.73,0,0,0,5-7.37Z"/><path class="cls-6" d="M1485.4,1308.52l1.48.65a68.18,68.18,0,0,1,22.58-6.47,62.62,62.62,0,0,1,21.82,1.94,103,103,0,0,1,15.19,5.35l-10.33,24.24c-8.67-2.37-13-3.53-21.71-5.79a17.2,17.2,0,0,0-2.19-9.25q-2.25-3.6-7.83-5a18.34,18.34,0,0,0-6.36-.27,25.16,25.16,0,0,0-7.25,1.9,17.48,17.48,0,0,0-5.56,3.49,18.76,18.76,0,0,0-3.24,4.21,55.28,55.28,0,0,0-3,6.84c-4.27,11.34-6.41,17-10.69,28.35-2.12,5.62-3.32,9.63-3.64,12a8.52,8.52,0,0,0,1.23,6.08q1.69,2.49,7.13,4.72l-2.27,5.85c-22.52-5.62-33.84-8.25-56.56-13.14l2-5.92c4,0,6.88-.43,8.73-1.37a11.74,11.74,0,0,0,4.67-4.45q1.86-3.06,4.81-11.56c5.08-14.71,7.63-22.06,12.72-36.77q2.28-6.6,3.08-9.85a11.89,11.89,0,0,0,.29-5.43,7.38,7.38,0,0,0-2.5-3.91q-2-1.74-7.61-3.92c.82-2.44,1.23-3.65,2-6.09,13.7,2.63,20.53,4,34.18,6.88,6.22,1.45,9.33,2.19,15.54,3.69C1489.45,1300.71,1488.09,1303.31,1485.4,1308.52Z"/><path class="cls-6" d="M1604.3,1414.24c-8.81,2.1-16.31,3.19-22.56,3.22a60.56,60.56,0,0,1-18.32-2.72c-11.14-3.44-18.39-8.23-21.81-14.53s-3.07-14.2,1.18-23.7c8.73-19.54,13.1-29.31,21.84-48.85-6-1.73-9.05-2.58-15.1-4.26,1-2.42,1.58-3.63,2.62-6.05,5.2.79,9.23,1,12.1.45a17.85,17.85,0,0,0,7.55-3.11,32.52,32.52,0,0,0,6.56-6.74,98,98,0,0,0,7.1-11.27c11.83,3.44,17.73,5.21,29.49,8.83-4.16,8.67-6.23,13-10.39,21.66,13.77,4.25,20.64,6.43,34.32,10.94l-5.5,10.73c-13.56-4.47-20.37-6.64-34-10.84l-18.75,39.07q-4.71,9.79-5.75,14.84t.72,8.13a9.88,9.88,0,0,0,6,4.42,35.65,35.65,0,0,0,5.86,1.37,29.85,29.85,0,0,0,6,.13,40.2,40.2,0,0,0,7.44-1.28C1602.28,1408.5,1603,1410.42,1604.3,1414.24Z"/><path class="cls-16" d="M1486.34,1120.5c-1.62,1-3.4,2.34-4.21,4-7.12,14-19.49,14.32-32.92,13.83-20.3-.65-40.68-.16-61.06-.4-10.19-.08-14.31-5.18-13.1-15.29a29.09,29.09,0,0,1,22.4-25.15,148.91,148.91,0,0,1,23.94-3.4c11.65-.81,19.41-5.74,22.49-17.47,1.45-5.58,3.8-11,5.41-16.58,8.09-28-6.79-57.09-35-64.94-12.7-3.48-27-5.34-40-3.56-60.49,7.93-105.22-17.71-140.64-63.73-11-14.23-20.06-29.92-30-45-.8.4-1.53.89-2.34,1.37,10.19,16.5,20.06,33.24,30.81,49.33,3.64,5.5,4.37,9.39,1.86,15.69a222.79,222.79,0,0,0-11.4,35.83,63.14,63.14,0,0,0,6,45c10.27,19.25,8,29.2-9.86,42.06-13,9.46-28.15,16.41-40.2,26.93-21.75,19-46.18,25.23-74.08,22a108.08,108.08,0,0,0-18.44-.17c-8.9.57-11.56-4.77-11.24-12.05.48-10.11,5.5-17.79,14.8-22.16,3.15-1.45,6.87-2.75,10.19-2.67,25,1.14,43.43-12,61.22-27,16.42-14,19-28.63,9.3-48.2-13.75-27.66-27.09-55.64-40.44-83.54-1.94-4.13-3.23-8.5-5.09-12.62-3-6.63-.65-10.35,6-12.29,11-3.24,22.08-6.64,33.08-11.89-4.69.24-9.46.16-14.07.81-28,4-52.81,15.93-77.24,29.68a610.68,610.68,0,0,1-64,31.62c-10.27,4.29-22.48,4-35.5,6.07.72-8.42,1.78-14.72,1.7-21-.09-3.4-1.22-7.69-3.4-10-11.24-11.89-23-23.29-34.54-34.86-.8-.81-1.77-1.53-4.36-3.64,4.28,18.68,13.83,31.38,26.28,42.62,3.32,2.92,6.63,8.66,6.07,12.54-3.32,26-.49,51.44,9.86,75,11.49,26,7.61,48.37-6.95,72-19.17,31.3-18,32-55,32-21.35,0-42.7-.41-64-.08-8.57.16-10-3.56-8.25-10.68,3.88-15.93,13.35-26.28,29.6-29.76,8.82-1.86,17.71-3.24,26.69-4.61,13.1-2,15.85-12.46,19.25-22.73,3.15-9.54,1.05-17.14-6.55-23.37-11.65-9.71-23.54-19.17-35.1-29-29.44-24.83-54.19-53.54-71.66-88.08-4.2-8.17-7-17.14-11.16-25.55a106.21,106.21,0,0,0,11.73,46.42c7.44,14.15,16.17,27.66,24.91,42.38-21.59,2.59-42.14-1.13-60-12.54-17.31-11.16-32.76-25.15-48.2-37.28,5.25,12.05,12.86,25.15,24.42,34.94,9,7.52,8.74,14.31,5.82,25-4.44,16.25-13.34,26-28.06,33.88-21.59,11.49-42,25.24-62.52,38.74a136,136,0,0,0-47.63,53.79c-3,6-6.71,8.57-13.43,8.57-30.41-.24-60.73.08-91.14-.16-11.08-.08-12.38-1.94-9.06-12.86,3.88-13,12.86-22.32,25.8-25.16,23.69-5.33,40.68-19,53.7-38.49,21.51-32.19,43-64.38,64.21-96.81,13.35-20.38,14-41.81,6.07-64.78-6.23-17.88-9.62-36.72-14.23-55.16-.65-2.42-1.14-4.85-1.62-7.36l-2.91.24v38l-3.16.72c-4.61-9.7-9.86-19.16-13.5-29.19-13.43-36.4-23.22-73.28-15.45-112.58,4.12-21.27,14.15-39.31,27.82-55.72,11.73-14.08,23.37-28.39,34.94-42.71,6.63-8.25,11.4-17.22,9.38-28.47-2.83-16.25-20.62-24.1-34.05-14.88-10,6.88-19.25,7.12-28.87.73-12.46-8.49-16.34-16.42-12.7-29.19,4-14,.57-25.56-10.92-34.21-6.06-4.61-6.22-10.28-4.61-16.42,2-7.36,3-14.07-1-21.43-3.88-7.12,1.46-11.41,7.2-14.48,20.22-10.76,40.76-21,60.66-32.27,7.6-4.29,13.75-11.24,21-16.09,4.29-2.84,9.63-4.45,14.64-5.75,9.87-2.59,20.06-4.2,29.85-7,6.06-1.7,8.16-5.74,6.22-12.7-3-10.43-.32-19.9,6.64-29.92.72,2.42,1.29,4.28,1.86,6.22,6.14-2.42,12.29-4.85,20.21-8-.8,4.69-1.13,6.63-1.45,8.89,1.37,0,2.43.33,3.15-.08,12.22-6.23,23.54-3.72,35,2.35,4.13,2.18,9.06,3.23,13.75,4.12,16,2.75,32,3.56,45,16.58,6.55,6.63,17.79,8.57,27,12.46,16,6.71,27.26,18.19,34.86,33.48,1.78,3.56,2.42,7.68,4.2,13.42-6.3-2.66-10.67-4.52-15-6.38-.48.64-1,1.37-1.45,2.1,2.75,2.18,5.49,4.37,8.24,6.47,13.83,10.84,25.08,22.89,26.29,42,.32,5.5,4.61,11.41,8.41,15.94,16.74,19.89,13.35,44.31,15.85,67.36-11.64,18.12-6.14,40.52-16.17,59.85-12.86,24.83,10.27,62.92,40,67.86,26.69,4.45,53.78,7.76,80.8,8.49,68.09,1.78,135.22,10.11,200.49,29.44,15.44,4.53,30.08,13.42,43.59,22.4,28.71,19.17,57.18,17.07,86,1.62,14.48-7.69,18.76-17.47,16.09-33.81-4.93-31.14-32.67-55.32-68.18-60.9-32.91-5.09-64.78.49-97,6.8-18.19,3.47-37.2,6.22-55.48,4.77-29.11-2.35-39.62-30.33-21.59-53.3,12.7-16.17,28.47-27.34,50.39-25.88,4.2.24,9.62-2.18,11.32,5.18.32,1.37,5.82,2.5,8.89,2.26,14.8-1.13,29.61-2.83,43.11-4.12-4,2.18-9.87,5.5-16.74,9.3,3.07.72,5.42,1.21,9.71,2.18-5.91,2.43-10.28,4.21-15.86,6.47,3.08,1.21,5.42,2.1,7.77,3a16.68,16.68,0,0,1,.32,1.94c-6.63,1.14-13.26,2.27-23.7,4,4.7,1.78,7.28,2.67,9.87,3.64-.73,1.45-1.45,2.91-2.1,4.36-8.25-1.37-16.58-2.58-24.75-4.36-9.7-2.27-19.17-5.91-29-7.28a31.89,31.89,0,0,0-17.63,3.31c-13.27,6.8-14.32,19.74-3.72,30.17,11.24,11.08,25,11.32,39,9.14,16.9-2.75,33.48-8,50.38-9.46,26-2.35,52.25-4.45,78.13-2.92,33.56,2,60.49,18.93,80.79,45.86,12.38,16.26,14.48,34.29,7.61,53.14-8.82,23.94-25.88,39.87-50.31,47.23-14.31,4.28-28.79,9.22-46.42,5.42,6.23,7.92,11.81,14.64,17,21.67,13.83,18.6,27.82,37.12,41.09,56.21,3.72,5.42,5.25,12.37,7.2,18.84.56,1.78-.89,4.13-2,8.58,5.83,4.36,12.86,11.89,21.6,15.85,20.46,9.22,41.41,17.87,62.76,24.5,17.79,5.42,24.91,9.63,21.91,27.66-4.77,29.6,6.31,56.78,8.9,85.17.24,3.23.32,6.47.81,9.62C1507,1095.91,1502.11,1110.47,1486.34,1120.5Z"/><polygon class="cls-17" points="641.09 1461.83 653.93 1499.15 684.88 1523.65 647.56 1536.49 623.06 1567.44 610.22 1530.12 579.27 1505.63 616.59 1492.78 641.09 1461.83"/><polygon class="cls-17" points="1331 1468.98 1343.84 1506.3 1374.79 1530.8 1337.47 1543.64 1312.97 1574.59 1300.13 1537.27 1269.18 1512.77 1306.5 1499.93 1331 1468.98"/></svg>